<mxfile host="app.diagrams.net" modified="2023-10-18T17:59:40.149Z" agent="Mozilla/5.0 (X11; Linux x86_64; rv:102.0) Gecko/20100101 Firefox/102.0" etag="MzdDWaeP9Yj9deTAURPZ" version="21.8.2" type="github">
  <diagram name="Página-1" id="Lq79YrAjHxLxr5F6MaAP">
    <mxGraphModel dx="2613" dy="1905" grid="1" gridSize="10" guides="1" tooltips="1" connect="1" arrows="1" fold="1" page="1" pageScale="1" pageWidth="827" pageHeight="1169" math="0" shadow="0">
      <root>
        <mxCell id="0" />
        <mxCell id="1" parent="0" />
        <mxCell id="2YVjsT9ypfTPWENLPIPN-97" style="edgeStyle=orthogonalEdgeStyle;rounded=0;orthogonalLoop=1;jettySize=auto;html=1;entryX=0.5;entryY=0;entryDx=0;entryDy=0;endArrow=none;endFill=0;" edge="1" parent="1" source="2YVjsT9ypfTPWENLPIPN-1" target="2YVjsT9ypfTPWENLPIPN-25">
          <mxGeometry relative="1" as="geometry" />
        </mxCell>
        <mxCell id="2YVjsT9ypfTPWENLPIPN-1" value="Empresa" style="whiteSpace=wrap;html=1;fillColor=#ffe6cc;strokeColor=#d79b00;" vertex="1" parent="1">
          <mxGeometry x="-150" y="70" width="120" height="60" as="geometry" />
        </mxCell>
        <mxCell id="2YVjsT9ypfTPWENLPIPN-19" value="" style="endArrow=none;html=1;rounded=0;exitX=0.5;exitY=0;exitDx=0;exitDy=0;entryX=0.68;entryY=0.3;entryDx=0;entryDy=0;entryPerimeter=0;" edge="1" parent="1" source="2YVjsT9ypfTPWENLPIPN-20" target="2YVjsT9ypfTPWENLPIPN-24">
          <mxGeometry width="50" height="50" relative="1" as="geometry">
            <mxPoint x="-140" y="260" as="sourcePoint" />
            <mxPoint x="-150" y="250" as="targetPoint" />
          </mxGeometry>
        </mxCell>
        <mxCell id="2YVjsT9ypfTPWENLPIPN-33" value="" style="edgeStyle=orthogonalEdgeStyle;rounded=0;orthogonalLoop=1;jettySize=auto;html=1;endArrow=none;endFill=0;" edge="1" parent="1" source="2YVjsT9ypfTPWENLPIPN-20" target="2YVjsT9ypfTPWENLPIPN-32">
          <mxGeometry relative="1" as="geometry" />
        </mxCell>
        <mxCell id="2YVjsT9ypfTPWENLPIPN-72" value="" style="edgeStyle=orthogonalEdgeStyle;rounded=0;orthogonalLoop=1;jettySize=auto;html=1;endArrow=none;endFill=0;" edge="1" parent="1" source="2YVjsT9ypfTPWENLPIPN-20" target="2YVjsT9ypfTPWENLPIPN-71">
          <mxGeometry relative="1" as="geometry" />
        </mxCell>
        <mxCell id="2YVjsT9ypfTPWENLPIPN-20" value="Proveedora" style="whiteSpace=wrap;html=1;fillColor=#ffe6cc;strokeColor=#d79b00;" vertex="1" parent="1">
          <mxGeometry x="-380" y="390" width="120" height="60" as="geometry" />
        </mxCell>
        <mxCell id="2YVjsT9ypfTPWENLPIPN-37" value="" style="edgeStyle=orthogonalEdgeStyle;rounded=0;orthogonalLoop=1;jettySize=auto;html=1;endArrow=none;endFill=0;" edge="1" parent="1" source="2YVjsT9ypfTPWENLPIPN-22" target="2YVjsT9ypfTPWENLPIPN-36">
          <mxGeometry relative="1" as="geometry" />
        </mxCell>
        <mxCell id="2YVjsT9ypfTPWENLPIPN-22" value="Cliente" style="whiteSpace=wrap;html=1;fillColor=#ffe6cc;strokeColor=#d79b00;" vertex="1" parent="1">
          <mxGeometry x="-30" y="380" width="120" height="60" as="geometry" />
        </mxCell>
        <mxCell id="2YVjsT9ypfTPWENLPIPN-23" value="" style="endArrow=none;html=1;rounded=0;exitX=0.5;exitY=0;exitDx=0;exitDy=0;entryX=0.3;entryY=0.271;entryDx=0;entryDy=0;entryPerimeter=0;" edge="1" parent="1" source="2YVjsT9ypfTPWENLPIPN-22" target="2YVjsT9ypfTPWENLPIPN-24">
          <mxGeometry width="50" height="50" relative="1" as="geometry">
            <mxPoint y="280" as="sourcePoint" />
            <mxPoint x="-20" y="270" as="targetPoint" />
          </mxGeometry>
        </mxCell>
        <mxCell id="2YVjsT9ypfTPWENLPIPN-24" value="" style="verticalLabelPosition=bottom;verticalAlign=top;html=1;shape=mxgraph.basic.acute_triangle;dx=0.5;direction=west;" vertex="1" parent="1">
          <mxGeometry x="-140" y="210" width="100" height="70" as="geometry" />
        </mxCell>
        <mxCell id="2YVjsT9ypfTPWENLPIPN-25" value="" style="ellipse;whiteSpace=wrap;html=1;" vertex="1" parent="1">
          <mxGeometry x="-100" y="200" width="20" height="10" as="geometry" />
        </mxCell>
        <mxCell id="2YVjsT9ypfTPWENLPIPN-26" value="" style="shape=requiredInterface;html=1;verticalLabelPosition=bottom;sketch=0;direction=south;" vertex="1" parent="1">
          <mxGeometry x="-190" y="260" width="170" height="85" as="geometry" />
        </mxCell>
        <mxCell id="2YVjsT9ypfTPWENLPIPN-35" value="" style="edgeStyle=orthogonalEdgeStyle;rounded=0;orthogonalLoop=1;jettySize=auto;html=1;endArrow=none;endFill=0;" edge="1" parent="1" source="2YVjsT9ypfTPWENLPIPN-32" target="2YVjsT9ypfTPWENLPIPN-34">
          <mxGeometry relative="1" as="geometry">
            <Array as="points">
              <mxPoint x="-270" y="780" />
            </Array>
          </mxGeometry>
        </mxCell>
        <mxCell id="2YVjsT9ypfTPWENLPIPN-32" value="Provee" style="rhombus;whiteSpace=wrap;html=1;fillColor=#d5e8d4;strokeColor=#82b366;" vertex="1" parent="1">
          <mxGeometry x="-310" y="645" width="80" height="80" as="geometry" />
        </mxCell>
        <mxCell id="2YVjsT9ypfTPWENLPIPN-34" value="Producto" style="whiteSpace=wrap;html=1;fillColor=#ffe6cc;strokeColor=#d79b00;" vertex="1" parent="1">
          <mxGeometry x="-70" y="760" width="120" height="60" as="geometry" />
        </mxCell>
        <mxCell id="2YVjsT9ypfTPWENLPIPN-38" style="edgeStyle=orthogonalEdgeStyle;rounded=0;orthogonalLoop=1;jettySize=auto;html=1;entryX=1;entryY=0.5;entryDx=0;entryDy=0;endArrow=none;endFill=0;" edge="1" parent="1" source="2YVjsT9ypfTPWENLPIPN-36" target="2YVjsT9ypfTPWENLPIPN-34">
          <mxGeometry relative="1" as="geometry">
            <Array as="points">
              <mxPoint x="220" y="790" />
            </Array>
          </mxGeometry>
        </mxCell>
        <mxCell id="2YVjsT9ypfTPWENLPIPN-36" value="Compra" style="rhombus;whiteSpace=wrap;html=1;fillColor=#d5e8d4;strokeColor=#82b366;" vertex="1" parent="1">
          <mxGeometry x="180" y="380" width="80" height="80" as="geometry" />
        </mxCell>
        <mxCell id="2YVjsT9ypfTPWENLPIPN-39" value="Fax" style="ellipse;whiteSpace=wrap;html=1;" vertex="1" parent="1">
          <mxGeometry x="-100" y="-50" width="60" height="30" as="geometry" />
        </mxCell>
        <mxCell id="2YVjsT9ypfTPWENLPIPN-44" style="edgeStyle=orthogonalEdgeStyle;rounded=0;orthogonalLoop=1;jettySize=auto;html=1;endArrow=none;endFill=0;" edge="1" parent="1" source="2YVjsT9ypfTPWENLPIPN-40" target="2YVjsT9ypfTPWENLPIPN-1">
          <mxGeometry relative="1" as="geometry" />
        </mxCell>
        <mxCell id="2YVjsT9ypfTPWENLPIPN-40" value="Teléfono" style="ellipse;whiteSpace=wrap;html=1;" vertex="1" parent="1">
          <mxGeometry x="-240" y="75" width="60" height="50" as="geometry" />
        </mxCell>
        <mxCell id="2YVjsT9ypfTPWENLPIPN-48" style="edgeStyle=orthogonalEdgeStyle;rounded=0;orthogonalLoop=1;jettySize=auto;html=1;entryX=1;entryY=0.25;entryDx=0;entryDy=0;endArrow=none;endFill=0;" edge="1" parent="1" source="2YVjsT9ypfTPWENLPIPN-41" target="2YVjsT9ypfTPWENLPIPN-1">
          <mxGeometry relative="1" as="geometry">
            <Array as="points">
              <mxPoint x="-30" y="-10" />
              <mxPoint x="-30" y="43" />
              <mxPoint x="-10" y="43" />
              <mxPoint x="-10" y="60" />
              <mxPoint x="-30" y="60" />
            </Array>
          </mxGeometry>
        </mxCell>
        <mxCell id="2YVjsT9ypfTPWENLPIPN-41" value="Población" style="ellipse;whiteSpace=wrap;html=1;" vertex="1" parent="1">
          <mxGeometry x="-10" y="-35" width="60" height="50" as="geometry" />
        </mxCell>
        <mxCell id="2YVjsT9ypfTPWENLPIPN-46" style="edgeStyle=orthogonalEdgeStyle;rounded=0;orthogonalLoop=1;jettySize=auto;html=1;entryX=0.25;entryY=0;entryDx=0;entryDy=0;endArrow=none;endFill=0;" edge="1" parent="1" source="2YVjsT9ypfTPWENLPIPN-42" target="2YVjsT9ypfTPWENLPIPN-1">
          <mxGeometry relative="1" as="geometry" />
        </mxCell>
        <mxCell id="2YVjsT9ypfTPWENLPIPN-42" value="Dirección" style="ellipse;whiteSpace=wrap;html=1;" vertex="1" parent="1">
          <mxGeometry x="-150" y="-5" width="70" height="30" as="geometry" />
        </mxCell>
        <mxCell id="2YVjsT9ypfTPWENLPIPN-43" value="&lt;u&gt;&lt;b&gt;NIF&lt;/b&gt;&lt;/u&gt;" style="ellipse;whiteSpace=wrap;html=1;fillColor=#dae8fc;strokeColor=#6c8ebf;" vertex="1" parent="1">
          <mxGeometry x="-200" y="15" width="40" height="30" as="geometry" />
        </mxCell>
        <mxCell id="2YVjsT9ypfTPWENLPIPN-45" style="edgeStyle=orthogonalEdgeStyle;rounded=0;orthogonalLoop=1;jettySize=auto;html=1;entryX=0.058;entryY=-0.033;entryDx=0;entryDy=0;entryPerimeter=0;endArrow=none;endFill=0;" edge="1" parent="1" source="2YVjsT9ypfTPWENLPIPN-43" target="2YVjsT9ypfTPWENLPIPN-1">
          <mxGeometry relative="1" as="geometry" />
        </mxCell>
        <mxCell id="2YVjsT9ypfTPWENLPIPN-47" style="edgeStyle=orthogonalEdgeStyle;rounded=0;orthogonalLoop=1;jettySize=auto;html=1;entryX=0.85;entryY=0.017;entryDx=0;entryDy=0;entryPerimeter=0;endArrow=none;endFill=0;" edge="1" parent="1" source="2YVjsT9ypfTPWENLPIPN-39" target="2YVjsT9ypfTPWENLPIPN-1">
          <mxGeometry relative="1" as="geometry" />
        </mxCell>
        <mxCell id="2YVjsT9ypfTPWENLPIPN-53" style="edgeStyle=orthogonalEdgeStyle;rounded=0;orthogonalLoop=1;jettySize=auto;html=1;endArrow=none;endFill=0;" edge="1" parent="1" source="2YVjsT9ypfTPWENLPIPN-49" target="2YVjsT9ypfTPWENLPIPN-22">
          <mxGeometry relative="1" as="geometry" />
        </mxCell>
        <mxCell id="2YVjsT9ypfTPWENLPIPN-49" value="Portes" style="ellipse;whiteSpace=wrap;html=1;" vertex="1" parent="1">
          <mxGeometry x="10" y="500" width="60" height="40" as="geometry" />
        </mxCell>
        <mxCell id="2YVjsT9ypfTPWENLPIPN-50" value="&lt;div&gt;Comunidad&lt;/div&gt;&lt;div&gt;autónoma&lt;br&gt;&lt;/div&gt;" style="ellipse;whiteSpace=wrap;html=1;" vertex="1" parent="1">
          <mxGeometry x="140" y="292.5" width="80" height="40" as="geometry" />
        </mxCell>
        <mxCell id="2YVjsT9ypfTPWENLPIPN-54" style="edgeStyle=orthogonalEdgeStyle;rounded=0;orthogonalLoop=1;jettySize=auto;html=1;entryX=1;entryY=0.75;entryDx=0;entryDy=0;endArrow=none;endFill=0;" edge="1" parent="1" source="2YVjsT9ypfTPWENLPIPN-51" target="2YVjsT9ypfTPWENLPIPN-22">
          <mxGeometry relative="1" as="geometry" />
        </mxCell>
        <mxCell id="2YVjsT9ypfTPWENLPIPN-51" value="Provincia" style="ellipse;whiteSpace=wrap;html=1;" vertex="1" parent="1">
          <mxGeometry x="110" y="470" width="60" height="40" as="geometry" />
        </mxCell>
        <mxCell id="2YVjsT9ypfTPWENLPIPN-55" style="edgeStyle=orthogonalEdgeStyle;rounded=0;orthogonalLoop=1;jettySize=auto;html=1;entryX=0.867;entryY=0.033;entryDx=0;entryDy=0;entryPerimeter=0;endArrow=none;endFill=0;" edge="1" parent="1" source="2YVjsT9ypfTPWENLPIPN-50" target="2YVjsT9ypfTPWENLPIPN-22">
          <mxGeometry relative="1" as="geometry" />
        </mxCell>
        <mxCell id="2YVjsT9ypfTPWENLPIPN-58" style="edgeStyle=orthogonalEdgeStyle;rounded=0;orthogonalLoop=1;jettySize=auto;html=1;entryX=0;entryY=0.5;entryDx=0;entryDy=0;endArrow=none;endFill=0;" edge="1" parent="1" source="2YVjsT9ypfTPWENLPIPN-56" target="2YVjsT9ypfTPWENLPIPN-20">
          <mxGeometry relative="1" as="geometry" />
        </mxCell>
        <mxCell id="2YVjsT9ypfTPWENLPIPN-56" value="&lt;div&gt;Persona&lt;/div&gt;&lt;div&gt;contacto&lt;br&gt;&lt;/div&gt;" style="ellipse;whiteSpace=wrap;html=1;" vertex="1" parent="1">
          <mxGeometry x="-500" y="480" width="70" height="40" as="geometry" />
        </mxCell>
        <mxCell id="2YVjsT9ypfTPWENLPIPN-59" style="edgeStyle=orthogonalEdgeStyle;rounded=0;orthogonalLoop=1;jettySize=auto;html=1;entryX=0.25;entryY=0;entryDx=0;entryDy=0;endArrow=none;endFill=0;" edge="1" parent="1" source="2YVjsT9ypfTPWENLPIPN-57" target="2YVjsT9ypfTPWENLPIPN-20">
          <mxGeometry relative="1" as="geometry" />
        </mxCell>
        <mxCell id="2YVjsT9ypfTPWENLPIPN-57" value="&lt;div&gt;&lt;u&gt;&lt;b&gt;CIF&lt;/b&gt;&lt;/u&gt;&lt;/div&gt;&lt;div&gt;&lt;u&gt;&lt;b&gt;internacional&lt;br&gt;&lt;/b&gt;&lt;/u&gt;&lt;/div&gt;" style="ellipse;whiteSpace=wrap;html=1;fillColor=#dae8fc;strokeColor=#6c8ebf;" vertex="1" parent="1">
          <mxGeometry x="-430" y="310" width="100" height="50" as="geometry" />
        </mxCell>
        <mxCell id="2YVjsT9ypfTPWENLPIPN-60" value="Coste" style="ellipse;whiteSpace=wrap;html=1;" vertex="1" parent="1">
          <mxGeometry x="70" y="725" width="70" height="30" as="geometry" />
        </mxCell>
        <mxCell id="2YVjsT9ypfTPWENLPIPN-61" value="Descripción" style="ellipse;whiteSpace=wrap;html=1;" vertex="1" parent="1">
          <mxGeometry x="-190" y="720" width="80" height="40" as="geometry" />
        </mxCell>
        <mxCell id="2YVjsT9ypfTPWENLPIPN-70" style="edgeStyle=orthogonalEdgeStyle;rounded=0;orthogonalLoop=1;jettySize=auto;html=1;exitX=0.5;exitY=0;exitDx=0;exitDy=0;entryX=0.5;entryY=1;entryDx=0;entryDy=0;endArrow=none;endFill=0;" edge="1" parent="1" source="2YVjsT9ypfTPWENLPIPN-62" target="2YVjsT9ypfTPWENLPIPN-34">
          <mxGeometry relative="1" as="geometry" />
        </mxCell>
        <mxCell id="2YVjsT9ypfTPWENLPIPN-62" value="&lt;u&gt;&lt;b&gt;Código&lt;/b&gt;&lt;/u&gt;" style="ellipse;whiteSpace=wrap;html=1;fillColor=#dae8fc;strokeColor=#6c8ebf;" vertex="1" parent="1">
          <mxGeometry x="-40" y="880" width="60" height="40" as="geometry" />
        </mxCell>
        <mxCell id="2YVjsT9ypfTPWENLPIPN-68" style="edgeStyle=orthogonalEdgeStyle;rounded=0;orthogonalLoop=1;jettySize=auto;html=1;entryX=0.1;entryY=0.017;entryDx=0;entryDy=0;entryPerimeter=0;endArrow=none;endFill=0;" edge="1" parent="1" source="2YVjsT9ypfTPWENLPIPN-61" target="2YVjsT9ypfTPWENLPIPN-34">
          <mxGeometry relative="1" as="geometry" />
        </mxCell>
        <mxCell id="2YVjsT9ypfTPWENLPIPN-69" style="edgeStyle=orthogonalEdgeStyle;rounded=0;orthogonalLoop=1;jettySize=auto;html=1;entryX=0.625;entryY=0;entryDx=0;entryDy=0;entryPerimeter=0;endArrow=none;endFill=0;" edge="1" parent="1" source="2YVjsT9ypfTPWENLPIPN-60" target="2YVjsT9ypfTPWENLPIPN-34">
          <mxGeometry relative="1" as="geometry" />
        </mxCell>
        <mxCell id="2YVjsT9ypfTPWENLPIPN-75" style="edgeStyle=orthogonalEdgeStyle;rounded=0;orthogonalLoop=1;jettySize=auto;html=1;exitX=0.5;exitY=1;exitDx=0;exitDy=0;entryX=0.5;entryY=0;entryDx=0;entryDy=0;endArrow=none;endFill=0;" edge="1" parent="1" source="2YVjsT9ypfTPWENLPIPN-71" target="2YVjsT9ypfTPWENLPIPN-73">
          <mxGeometry relative="1" as="geometry" />
        </mxCell>
        <mxCell id="2YVjsT9ypfTPWENLPIPN-76" style="edgeStyle=orthogonalEdgeStyle;rounded=0;orthogonalLoop=1;jettySize=auto;html=1;exitX=1;exitY=0.5;exitDx=0;exitDy=0;endArrow=none;endFill=0;" edge="1" parent="1" source="2YVjsT9ypfTPWENLPIPN-71" target="2YVjsT9ypfTPWENLPIPN-22">
          <mxGeometry relative="1" as="geometry" />
        </mxCell>
        <mxCell id="2YVjsT9ypfTPWENLPIPN-71" value="Firma" style="rhombus;whiteSpace=wrap;html=1;fillColor=#d5e8d4;strokeColor=#82b366;" vertex="1" parent="1">
          <mxGeometry x="-160" y="370" width="60" height="50" as="geometry" />
        </mxCell>
        <mxCell id="2YVjsT9ypfTPWENLPIPN-73" value="Acuerdo" style="whiteSpace=wrap;html=1;fillColor=#ffe6cc;strokeColor=#d79b00;" vertex="1" parent="1">
          <mxGeometry x="-175" y="470" width="90" height="40" as="geometry" />
        </mxCell>
        <mxCell id="2YVjsT9ypfTPWENLPIPN-79" style="edgeStyle=orthogonalEdgeStyle;rounded=0;orthogonalLoop=1;jettySize=auto;html=1;entryX=0.317;entryY=-0.033;entryDx=0;entryDy=0;entryPerimeter=0;endArrow=none;endFill=0;" edge="1" parent="1" target="2YVjsT9ypfTPWENLPIPN-34">
          <mxGeometry relative="1" as="geometry">
            <mxPoint x="-80.00000000000045" y="625" as="sourcePoint" />
          </mxGeometry>
        </mxCell>
        <mxCell id="2YVjsT9ypfTPWENLPIPN-85" value="1:1" style="text;html=1;align=center;verticalAlign=middle;resizable=0;points=[];autosize=1;strokeColor=none;fillColor=none;" vertex="1" parent="1">
          <mxGeometry x="-360" y="485" width="40" height="30" as="geometry" />
        </mxCell>
        <mxCell id="2YVjsT9ypfTPWENLPIPN-86" value="1:1" style="text;html=1;align=center;verticalAlign=middle;resizable=0;points=[];autosize=1;strokeColor=none;fillColor=none;" vertex="1" parent="1">
          <mxGeometry x="-260" y="790" width="40" height="30" as="geometry" />
        </mxCell>
        <mxCell id="2YVjsT9ypfTPWENLPIPN-87" value="1:1" style="text;html=1;align=center;verticalAlign=middle;resizable=0;points=[];autosize=1;strokeColor=none;fillColor=none;" vertex="1" parent="1">
          <mxGeometry x="-350" y="670" width="40" height="30" as="geometry" />
        </mxCell>
        <mxCell id="2YVjsT9ypfTPWENLPIPN-88" value="1:N" style="text;html=1;align=center;verticalAlign=middle;resizable=0;points=[];autosize=1;strokeColor=none;fillColor=none;" vertex="1" parent="1">
          <mxGeometry x="110" y="380" width="40" height="30" as="geometry" />
        </mxCell>
        <mxCell id="2YVjsT9ypfTPWENLPIPN-89" value="1:N" style="text;html=1;align=center;verticalAlign=middle;resizable=0;points=[];autosize=1;strokeColor=none;fillColor=none;" vertex="1" parent="1">
          <mxGeometry x="95" y="800" width="40" height="30" as="geometry" />
        </mxCell>
        <mxCell id="2YVjsT9ypfTPWENLPIPN-90" value="1:N" style="text;html=1;align=center;verticalAlign=middle;resizable=0;points=[];autosize=1;strokeColor=none;fillColor=none;" vertex="1" parent="1">
          <mxGeometry x="-260" y="380" width="40" height="30" as="geometry" />
        </mxCell>
        <mxCell id="2YVjsT9ypfTPWENLPIPN-91" value="1:N" style="text;html=1;align=center;verticalAlign=middle;resizable=0;points=[];autosize=1;strokeColor=none;fillColor=none;" vertex="1" parent="1">
          <mxGeometry x="-69" y="378" width="40" height="30" as="geometry" />
        </mxCell>
        <mxCell id="2YVjsT9ypfTPWENLPIPN-92" value="N:M" style="text;html=1;align=center;verticalAlign=middle;resizable=0;points=[];autosize=1;strokeColor=none;fillColor=none;" vertex="1" parent="1">
          <mxGeometry x="-155" y="340" width="50" height="30" as="geometry" />
        </mxCell>
        <mxCell id="2YVjsT9ypfTPWENLPIPN-93" value="N:M" style="text;html=1;align=center;verticalAlign=middle;resizable=0;points=[];autosize=1;strokeColor=none;fillColor=none;" vertex="1" parent="1">
          <mxGeometry x="260" y="405" width="50" height="30" as="geometry" />
        </mxCell>
        <mxCell id="2YVjsT9ypfTPWENLPIPN-95" value="0:N" style="text;html=1;align=center;verticalAlign=middle;resizable=0;points=[];autosize=1;strokeColor=none;fillColor=none;" vertex="1" parent="1">
          <mxGeometry x="-20" y="678" width="40" height="30" as="geometry" />
        </mxCell>
        <mxCell id="2YVjsT9ypfTPWENLPIPN-96" value="0:N" style="text;html=1;align=center;verticalAlign=middle;resizable=0;points=[];autosize=1;strokeColor=none;fillColor=none;" vertex="1" parent="1">
          <mxGeometry x="-140" y="670" width="40" height="30" as="geometry" />
        </mxCell>
        <mxCell id="2YVjsT9ypfTPWENLPIPN-99" value="Guarda" style="rhombus;whiteSpace=wrap;html=1;fillColor=#d5e8d4;strokeColor=#82b366;" vertex="1" parent="1">
          <mxGeometry x="-160" y="585" width="80" height="80" as="geometry" />
        </mxCell>
        <mxCell id="2YVjsT9ypfTPWENLPIPN-100" style="edgeStyle=orthogonalEdgeStyle;rounded=0;orthogonalLoop=1;jettySize=auto;html=1;exitX=0.5;exitY=0;exitDx=0;exitDy=0;entryX=0.611;entryY=1.05;entryDx=0;entryDy=0;entryPerimeter=0;endArrow=none;endFill=0;" edge="1" parent="1" source="2YVjsT9ypfTPWENLPIPN-99">
          <mxGeometry relative="1" as="geometry">
            <mxPoint x="-120" y="512" as="targetPoint" />
          </mxGeometry>
        </mxCell>
        <mxCell id="2YVjsT9ypfTPWENLPIPN-101" style="edgeStyle=orthogonalEdgeStyle;rounded=0;orthogonalLoop=1;jettySize=auto;html=1;entryX=0;entryY=0.5;entryDx=0;entryDy=0;exitX=0.5;exitY=1;exitDx=0;exitDy=0;endArrow=none;endFill=0;" edge="1" parent="1" source="2YVjsT9ypfTPWENLPIPN-102" target="2YVjsT9ypfTPWENLPIPN-99">
          <mxGeometry relative="1" as="geometry" />
        </mxCell>
        <mxCell id="2YVjsT9ypfTPWENLPIPN-102" value="&lt;div&gt;Porcentaje&lt;/div&gt;&lt;div&gt;descuento&lt;br&gt;&lt;/div&gt;" style="ellipse;whiteSpace=wrap;html=1;" vertex="1" parent="1">
          <mxGeometry x="-240" y="545" width="70" height="40" as="geometry" />
        </mxCell>
        <mxCell id="2YVjsT9ypfTPWENLPIPN-103" value="0:N" style="text;html=1;align=center;verticalAlign=middle;resizable=0;points=[];autosize=1;strokeColor=none;fillColor=none;" vertex="1" parent="1">
          <mxGeometry x="-120" y="528" width="40" height="30" as="geometry" />
        </mxCell>
      </root>
    </mxGraphModel>
  </diagram>
</mxfile>
